<?xml version="1.0" standalone="no"?><!DOCTYPE svg PUBLIC "-//W3C//DTD SVG 1.1//EN" "http://www.w3.org/Graphics/SVG/1.1/DTD/svg11.dtd"><svg t="1646366470686" class="icon" viewBox="0 0 1149 1024" version="1.1" xmlns="http://www.w3.org/2000/svg" p-id="6794" xmlns:xlink="http://www.w3.org/1999/xlink" width="224.4140625" height="200"><defs><style type="text/css"></style></defs><path d="M35.929825 62.877193a26.947368 26.947368 0 0 1 0-53.894737h171.600842a26.947368 26.947368 0 0 1 26.354526 21.378246l148.533895 701.47593a26.947368 26.947368 0 0 0 26.372491 21.36028h587.452632a26.947368 26.947368 0 0 0 26.606035-22.743579l63.883228-403.617684a26.947368 26.947368 0 0 0-26.624-31.151158H418.007579a26.947368 26.947368 0 0 1 0-53.894737H1060.109474a80.842105 80.842105 0 0 1 79.854035 93.471439L1076.080281 738.896842a80.842105 80.842105 0 0 1-79.83607 68.212772h-587.452632a80.842105 80.842105 0 0 1-79.099509-64.098807L185.685333 62.877193H35.929825z" fill="#f69e82" p-id="6795"></path><path d="M431.157895 1015.017544a80.842105 80.842105 0 1 1 0-161.684211 80.842105 80.842105 0 0 1 0 161.684211z m0-53.894737a26.947368 26.947368 0 1 0 0-53.894737 26.947368 26.947368 0 0 0 0 53.894737zM970.105263 1015.017544a80.842105 80.842105 0 1 1 0-161.684211 80.842105 80.842105 0 0 1 0 161.684211z m0-53.894737a26.947368 26.947368 0 1 0 0-53.894737 26.947368 26.947368 0 0 0 0 53.894737z" fill="#f69e82" p-id="6796"></path></svg>